# xmcd CD database file
#
# Track frame offsets:
#	150
#	13682
#	31565
#	49917
#	75452
#	95492
#	109830
#	130167
#	151682
#	176147
#
# Disc length: 2588 seconds
#
# Revision: 4
# Processed by: cddbd v1.5.2PL0 Copyright (c) Steve Scherf et al.
# Submitted via: CDex 1.70beta2
#
DISCID=6e0a1a0a
DTITLE=Azucar Letal - Azucar Letal
DYEAR=2000
DGENRE=Latin
TTITLE0=Melao de Caña
TTITLE1=La Mirada
TTITLE2=Mirame Bien
TTITLE3=Somos lo maximo
TTITLE4=El pai y la mai
TTITLE5=Guantanamera
TTITLE6=Hagamos un Chen
TTITLE7=La Bola
TTITLE8=Ya Ves
TTITLE9=Lalle Lalle
EXTD=YEAR: 2000
EXTT0=
EXTT1=
EXTT2=
EXTT3=
EXTT4=
EXTT5=
EXTT6=
EXTT7=
EXTT8=
EXTT9=
PLAYORDER=
